<svg width="144" height="26" viewBox="0 0 144 26" fill="none" xmlns="http://www.w3.org/2000/svg">
<path d="M1.26 20V5.4H6C7.01333 5.4 7.89333 5.59333 8.64 5.98C9.4 6.36667 9.98667 6.91333 10.4 7.62C10.8267 8.31333 11.04 9.13333 11.04 10.08V15.3C11.04 16.2333 10.8267 17.0533 10.4 17.76C9.98667 18.4667 9.4 19.02 8.64 19.42C7.89333 19.8067 7.01333 20 6 20H1.26ZM4.26 17.2H6C6.61333 17.2 7.10667 17.0267 7.48 16.68C7.85333 16.3333 8.04 15.8733 8.04 15.3V10.08C8.04 9.52 7.85333 9.06667 7.48 8.72C7.10667 8.37333 6.61333 8.2 6 8.2H4.26V17.2ZM16.5722 20.2C15.4655 20.2 14.5855 19.9 13.9322 19.3C13.2922 18.7 12.9722 17.8867 12.9722 16.86C12.9722 15.7533 13.3522 14.9067 14.1122 14.32C14.8855 13.72 15.9922 13.42 17.4322 13.42H19.7122V12.6C19.7122 12.1733 19.5589 11.8333 19.2522 11.58C18.9589 11.3267 18.5589 11.2 18.0522 11.2C17.5855 11.2 17.1989 11.3067 16.8922 11.52C16.5855 11.7333 16.3989 12.0267 16.3322 12.4H13.4322C13.5522 11.2933 14.0322 10.42 14.8722 9.78C15.7255 9.12667 16.8189 8.8 18.1522 8.8C19.5522 8.8 20.6589 9.14667 21.4722 9.84C22.2989 10.52 22.7122 11.44 22.7122 12.6V20H19.8122V18.2H19.3322L19.8322 17.5C19.8322 18.3267 19.5322 18.9867 18.9322 19.48C18.3455 19.96 17.5589 20.2 16.5722 20.2ZM17.6922 18C18.2789 18 18.7589 17.8467 19.1322 17.54C19.5189 17.22 19.7122 16.8067 19.7122 16.3V15.12H17.4922C17.0389 15.12 16.6722 15.2533 16.3922 15.52C16.1122 15.7733 15.9722 16.1133 15.9722 16.54C15.9722 16.9933 16.1255 17.3533 16.4322 17.62C16.7389 17.8733 17.1589 18 17.6922 18ZM28.1244 20L24.5244 9H27.6244L29.4644 15.18C29.571 15.5533 29.6777 15.96 29.7844 16.4C29.891 16.84 29.971 17.1933 30.0244 17.46C30.091 17.1933 30.171 16.84 30.2644 16.4C30.371 15.96 30.471 15.56 30.5644 15.2L32.3844 9H35.4444L31.8844 20H28.1244ZM37.3766 20V17.28H41.1766V11.7H37.8766V9H43.9766V17.28H47.1766V20H37.3766ZM42.3766 7.26C41.8299 7.26 41.3899 7.12 41.0566 6.84C40.7366 6.56 40.5766 6.18 40.5766 5.7C40.5766 5.22 40.7366 4.84 41.0566 4.56C41.3899 4.28 41.8299 4.14 42.3766 4.14C42.9232 4.14 43.3566 4.28 43.6766 4.56C44.0099 4.84 44.1766 5.22 44.1766 5.7C44.1766 6.18 44.0099 6.56 43.6766 6.84C43.3566 7.12 42.9232 7.26 42.3766 7.26ZM61.2609 20V5.4H65.9609C67.0009 5.4 67.9009 5.58 68.6609 5.94C69.4209 6.3 70.0076 6.81333 70.4209 7.48C70.8476 8.14667 71.0609 8.93333 71.0609 9.84C71.0609 10.7867 70.8276 11.6333 70.3609 12.38C69.9076 13.1267 69.2876 13.6667 68.5009 14L71.2609 20H68.0009L65.6409 14.48H64.2409V20H61.2609ZM64.2409 11.88H65.9609C66.6276 11.88 67.1409 11.7133 67.5009 11.38C67.8743 11.0467 68.0609 10.58 68.0609 9.98C68.0609 9.35333 67.8743 8.86667 67.5009 8.52C67.1409 8.17333 66.6276 8 65.9609 8H64.2409V11.88ZM77.9731 20.2C76.9998 20.2 76.1465 20.02 75.4131 19.66C74.6931 19.2867 74.1331 18.7733 73.7331 18.12C73.3465 17.4533 73.1531 16.68 73.1531 15.8V13.2C73.1531 12.32 73.3465 11.5533 73.7331 10.9C74.1331 10.2333 74.6931 9.72 75.4131 9.36C76.1465 8.98667 76.9998 8.8 77.9731 8.8C78.9465 8.8 79.7865 8.98667 80.4931 9.36C81.2131 9.72 81.7665 10.2333 82.1531 10.9C82.5531 11.5533 82.7531 12.32 82.7531 13.2V15.2H76.0131V15.8C76.0131 16.4933 76.1798 17.02 76.5131 17.38C76.8465 17.7267 77.3465 17.9 78.0131 17.9C78.4798 17.9 78.8531 17.82 79.1331 17.66C79.4265 17.5 79.6198 17.28 79.7131 17H82.6531C82.4131 17.96 81.8665 18.7333 81.0131 19.32C80.1731 19.9067 79.1598 20.2 77.9731 20.2ZM79.8931 13.66V13.16C79.8931 12.48 79.7331 11.96 79.4131 11.6C79.1065 11.24 78.6265 11.06 77.9731 11.06C77.3198 11.06 76.8265 11.2467 76.4931 11.62C76.1731 11.9933 76.0131 12.52 76.0131 13.2V13.5L80.0931 13.46L79.8931 13.66ZM85.3453 20V17.4L90.7853 11.6H85.5453V9H94.3253V11.6L88.8853 17.4H94.5453V20H85.3453ZM101.958 20.2C100.984 20.2 100.131 20.02 99.3975 19.66C98.6775 19.2867 98.1175 18.7733 97.7175 18.12C97.3308 17.4533 97.1375 16.68 97.1375 15.8V13.2C97.1375 12.32 97.3308 11.5533 97.7175 10.9C98.1175 10.2333 98.6775 9.72 99.3975 9.36C100.131 8.98667 100.984 8.8 101.958 8.8C102.931 8.8 103.771 8.98667 104.478 9.36C105.198 9.72 105.751 10.2333 106.138 10.9C106.538 11.5533 106.738 12.32 106.738 13.2V15.2H99.9975V15.8C99.9975 16.4933 100.164 17.02 100.498 17.38C100.831 17.7267 101.331 17.9 101.998 17.9C102.464 17.9 102.838 17.82 103.118 17.66C103.411 17.5 103.604 17.28 103.698 17H106.638C106.398 17.96 105.851 18.7333 104.998 19.32C104.158 19.9067 103.144 20.2 101.958 20.2ZM103.878 13.66V13.16C103.878 12.48 103.718 11.96 103.398 11.6C103.091 11.24 102.611 11.06 101.958 11.06C101.304 11.06 100.811 11.2467 100.478 11.62C100.158 11.9933 99.9975 12.52 99.9975 13.2V13.5L104.078 13.46L103.878 13.66ZM109.25 20V9H112.15V11.1H113.03L112.15 11.8C112.15 10.8667 112.416 10.1333 112.95 9.6C113.483 9.06667 114.203 8.8 115.11 8.8C116.176 8.8 117.03 9.17333 117.67 9.92C118.323 10.6667 118.65 11.66 118.65 12.9V20H115.65V13.2C115.65 12.6267 115.496 12.1867 115.19 11.88C114.896 11.56 114.476 11.4 113.93 11.4C113.396 11.4 112.983 11.56 112.69 11.88C112.396 12.1867 112.25 12.6267 112.25 13.2V20H109.25ZM124.782 20.2C123.675 20.2 122.789 19.8133 122.122 19.04C121.455 18.2667 121.122 17.22 121.122 15.9V13.1C121.122 11.7933 121.455 10.7533 122.122 9.98C122.789 9.19333 123.675 8.8 124.782 8.8C125.689 8.8 126.402 9.06667 126.922 9.6C127.442 10.12 127.702 10.8533 127.702 11.8L127.002 11.1H127.702L127.602 8.4V5.4H130.602V20H127.702V17.9H127.002L127.702 17.2C127.702 18.1467 127.442 18.8867 126.922 19.42C126.402 19.94 125.689 20.2 124.782 20.2ZM125.862 17.6C126.409 17.6 126.835 17.4467 127.142 17.14C127.449 16.82 127.602 16.3733 127.602 15.8V13.2C127.602 12.6267 127.449 12.1867 127.142 11.88C126.835 11.56 126.409 11.4 125.862 11.4C125.302 11.4 124.869 11.56 124.562 11.88C124.269 12.1867 124.122 12.6267 124.122 13.2V15.8C124.122 16.3733 124.269 16.82 124.562 17.14C124.869 17.4467 125.302 17.6 125.862 17.6ZM137.934 20.2C136.961 20.2 136.107 20.02 135.374 19.66C134.654 19.2867 134.094 18.7733 133.694 18.12C133.307 17.4533 133.114 16.68 133.114 15.8V13.2C133.114 12.32 133.307 11.5533 133.694 10.9C134.094 10.2333 134.654 9.72 135.374 9.36C136.107 8.98667 136.961 8.8 137.934 8.8C138.907 8.8 139.747 8.98667 140.454 9.36C141.174 9.72 141.727 10.2333 142.114 10.9C142.514 11.5533 142.714 12.32 142.714 13.2V15.2H135.974V15.8C135.974 16.4933 136.141 17.02 136.474 17.38C136.807 17.7267 137.307 17.9 137.974 17.9C138.441 17.9 138.814 17.82 139.094 17.66C139.387 17.5 139.581 17.28 139.674 17H142.614C142.374 17.96 141.827 18.7333 140.974 19.32C140.134 19.9067 139.121 20.2 137.934 20.2ZM139.854 13.66V13.16C139.854 12.48 139.694 11.96 139.374 11.6C139.067 11.24 138.587 11.06 137.934 11.06C137.281 11.06 136.787 11.2467 136.454 11.62C136.134 11.9933 135.974 12.52 135.974 13.2V13.5L140.054 13.46L139.854 13.66Z" fill="url(#paint0_linear_207_99)"/>
<defs>
<linearGradient id="paint0_linear_207_99" x1="-7.06133e-07" y1="12.381" x2="144" y2="12.381" gradientUnits="userSpaceOnUse">
<stop stop-color="#C600E6"/>
<stop offset="1" stop-color="#E6D80B"/>
</linearGradient>
</defs>
</svg>
