<svg width="101" height="100" viewBox="0 0 101 100" fill="none" xmlns="http://www.w3.org/2000/svg">
<path d="M0 0H50C77.6142 0 100 22.3858 100 50C100 77.6142 77.6142 100 50 100H0V0Z" fill="url(#paint0_linear_272_4)"/>
<path d="M8 96H22.8516H81H90.7118L83.8171 89.1603L52.7426 58.3335C56.367 56.3514 59.3602 53.6385 61.6305 50.1682L61.6395 50.1544L61.6484 50.1406C64.9074 45.0684 66.5265 39.399 66.5265 33.2371C66.5265 27.9359 65.3717 23.0367 62.9865 18.6309C60.6217 14.0505 57.0389 10.4758 52.3762 7.92356C47.6233 5.24235 42.039 4 35.7937 4H8H4V8V92V96H8Z" stroke="url(#paint1_linear_272_4)" stroke-width="8" stroke-linecap="round"/>
<defs>
<linearGradient id="paint0_linear_272_4" x1="0" y1="0" x2="91.5" y2="100" gradientUnits="userSpaceOnUse">
<stop stop-color="#C600E6"/>
<stop offset="1" stop-color="#E6D80B"/>
</linearGradient>
<linearGradient id="paint1_linear_272_4" x1="7.24227" y1="7.15764" x2="88.8429" y2="83.5874" gradientUnits="userSpaceOnUse">
<stop stop-color="#E6D80B"/>
<stop offset="1" stop-color="#C600E6"/>
</linearGradient>
</defs>
</svg>
